<svg width="2163" height="206" viewBox="0 0 2163 206" fill="none" xmlns="http://www.w3.org/2000/svg">
<path d="M1993.15 78.2987C2049.01 78.2987 2074.57 44.8518 2087.87 0H2146.09C2133.96 38.5033 2112.74 78.0553 2082.23 96.8574C2112.16 113.356 2141.24 148.077 2155.96 205.981H2098.08C2083.66 147.571 2049.37 122.289 1993.17 122.289L1993.3 205.981H1935.39V0H1993.28L1993.15 78.2987Z" fill="#131416"/>
<path d="M1855.84 103.037C1855.84 60.5078 1829.28 42.567 1796.27 42.567C1763.25 42.567 1736.36 60.489 1736.36 103.037C1736.36 145.586 1763.18 163.508 1796.27 163.508C1829.36 163.508 1855.84 145.586 1855.84 103.037ZM1676.99 103.037C1676.99 38.3909 1728.42 0.0748562 1796.21 0.0748562C1864 0.0748562 1915.15 38.4283 1915.15 103.037C1915.15 167.646 1864.02 206 1796.21 206C1728.4 206 1676.99 167.646 1676.99 103.037Z" fill="#131416"/>
<path d="M1600.77 103.037C1600.77 60.5078 1574.22 42.567 1541.15 42.567C1508.07 42.567 1481.24 60.489 1481.24 103.037C1481.24 145.586 1508.05 163.508 1541.15 163.508C1574.24 163.508 1600.77 145.586 1600.77 103.037ZM1421.93 103.037C1421.95 38.3909 1473.35 0.0748562 1541.15 0.0748562C1608.94 0.0748562 1660.08 38.4283 1660.08 103.037C1660.08 167.646 1608.96 206 1541.15 206C1473.33 206 1421.93 167.646 1421.93 103.037Z" fill="#131416"/>
<path fill-rule="evenodd" clip-rule="evenodd" d="M1409.48 140.617C1409.48 114.284 1391.4 95.1994 1365.69 87.1272C1378.98 78.9988 1386.89 64.2591 1386.89 48.6204C1386.89 20.8453 1362.88 0 1320.47 0H1190.05V206H1316.24C1380.09 206 1409.48 178.806 1409.48 140.617ZM1247.99 40.5109L1308.64 40.4173C1326.56 40.4173 1332.37 47.0473 1332.37 54.8386C1332.37 69.597 1297.68 84.0183 1247.99 87.9139V40.5109ZM1341.26 158.427C1346.85 155.168 1350.8 151.348 1352.69 147.096C1357.8 135.615 1349.75 121.531 1336.9 118.872C1330.51 117.561 1320.1 117.298 1305.83 121.063C1304.05 121.53 1302.33 121.992 1300.61 122.448C1286.56 126.195 1273.8 129.599 1248.11 133.255V165.357H1311.73C1321.79 164.926 1332.46 163.559 1341.26 158.427Z" fill="#131416"/>
<path d="M1090.6 206H1032.72V131.091L948.221 0.0748562H1012.08L1062.16 78.1676L1112.35 0.0748562H1175.08L1090.6 131.091V206Z" fill="#131416"/>
<path d="M750.311 0H933.951V43.9904H808.253V78.3174H925.486V122.308H808.253V162.01H936.779V206H750.311V0Z" fill="#131416"/>
<path d="M558.394 206H500.508V0.018714H572.552L663.791 127.289V0.018714H721.677V206H660.364L558.394 63.9536V206Z" fill="#131416"/>
<path d="M421.292 102.963C421.292 60.4329 394.736 42.4922 361.72 42.4922C328.704 42.4922 301.811 60.4142 301.811 102.963C301.811 145.511 328.629 163.433 361.72 163.433C394.811 163.433 421.292 145.511 421.292 102.963ZM242.446 102.963C242.446 38.316 293.871 0 361.664 0C429.457 0 480.601 38.3535 480.601 102.963C480.601 167.572 429.475 205.925 361.664 205.925C293.852 205.925 242.446 167.572 242.446 102.963Z" fill="#131416"/>
<path d="M221.169 0H163.227V90.0033C115.266 87.7373 79.8344 78.4298 57.9422 66.2571V0H0V205.981H57.9422V115.491C93.0371 128.263 127.233 134.761 163.227 135.473V205.981H221.169V0Z" fill="#131416"/>
</svg>
